<?xml version="1.0" standalone="no"?>
<!DOCTYPE svg PUBLIC "-//W3C//DTD SVG 20010904//EN"
 "http://www.w3.org/TR/2001/REC-SVG-20010904/DTD/svg10.dtd">
<svg version="1.0" xmlns="http://www.w3.org/2000/svg"
 width="768.000000pt" height="768.000000pt" viewBox="0 0 768.000000 768.000000"
 preserveAspectRatio="xMidYMid meet">
<metadata>
Created by potrace 1.14, written by Peter Selinger 2001-2017
</metadata>
<g transform="translate(0.000000,768.000000) scale(0.100000,-0.100000)"
fill="#000000" stroke="none">
<path d="M3405 6870 c-55 -10 -116 -21 -135 -24 -183 -34 -568 -170 -632 -224
-10 -8 -18 -11 -18 -6 0 5 -4 4 -8 -1 -4 -6 -18 -16 -32 -23 -47 -22 -184
-110 -222 -141 -7 -6 -42 -34 -78 -62 -95 -76 -236 -222 -308 -319 -35 -47
-70 -93 -78 -103 -8 -9 -14 -20 -14 -23 0 -4 -33 -47 -74 -98 -41 -50 -108
-143 -150 -206 -42 -63 -79 -120 -83 -126 -17 -22 -115 -214 -146 -284 -38
-85 -113 -289 -120 -330 -3 -14 -10 -36 -15 -50 -5 -14 -10 -29 -10 -35 -1 -5
-8 -41 -16 -80 -125 -577 -54 -1152 209 -1676 30 -60 67 -128 82 -151 15 -24
28 -45 28 -48 1 -13 112 -168 185 -260 77 -96 247 -274 336 -350 102 -88 278
-215 404 -290 84 -51 280 -150 296 -150 8 0 14 -4 14 -10 0 -5 3 -9 8 -8 8 1
26 -5 99 -37 28 -13 54 -21 57 -17 3 3 6 -1 6 -8 0 -7 3 -11 6 -7 3 3 25 -1
47 -10 23 -8 49 -16 57 -18 8 -2 16 -4 18 -5 1 -2 5 -3 10 -5 4 -1 14 -5 22
-8 36 -16 284 -74 354 -83 22 -3 43 -7 46 -9 7 -4 100 -15 255 -31 96 -9 555
-5 555 6 0 3 24 6 53 8 28 1 88 9 132 18 44 8 96 17 115 20 19 3 71 15 115 26
44 11 98 24 120 29 115 29 351 117 492 185 62 30 117 54 123 54 5 0 10 5 10
10 0 6 4 10 10 10 18 0 290 167 345 212 6 5 28 22 50 38 43 33 58 44 131 105
74 62 264 252 329 330 32 39 62 72 67 73 4 2 8 8 8 14 0 5 6 15 13 22 6 7 20
24 29 37 91 124 135 183 163 213 6 6 22 27 35 46 13 19 27 37 30 40 6 6 65 98
92 145 43 73 132 270 143 315 1 3 5 13 9 22 4 9 9 22 10 30 2 7 6 20 9 28 7
20 34 148 47 230 19 114 27 296 19 433 -2 46 -13 73 -16 39 -1 -9 -3 -24 -5
-32 -4 -12 -25 -85 -33 -110 -1 -3 -7 -18 -13 -33 -7 -16 -12 -30 -12 -32 0
-2 -10 -25 -22 -52 -12 -26 -22 -50 -22 -53 -1 -3 -13 -26 -29 -52 -15 -26
-27 -51 -27 -57 0 -6 -4 -11 -8 -11 -5 0 -13 -10 -19 -23 -23 -49 -143 -197
-238 -292 -99 -99 -248 -213 -335 -257 -25 -12 -47 -26 -50 -30 -5 -6 -70 -37
-185 -87 -104 -46 -318 -108 -450 -130 -111 -19 -130 -21 -230 -28 -161 -11
-468 -5 -516 11 -8 3 -36 7 -64 10 -55 6 -97 13 -135 23 -14 3 -28 6 -32 5
-13 -3 -230 55 -323 86 -80 27 -115 40 -230 84 -134 51 -541 280 -585 329 -3
3 -27 21 -54 40 -28 18 -57 41 -66 49 -9 8 -55 48 -102 87 -76 65 -190 180
-285 287 -71 79 -211 281 -261 376 -14 25 -30 52 -38 60 -7 8 -13 18 -13 23 0
4 -7 20 -15 35 -76 148 -153 388 -186 579 -22 129 -29 329 -15 438 16 126 24
170 41 235 8 30 17 62 19 70 2 8 4 16 5 18 2 1 3 5 5 10 1 4 4 14 8 22 3 8 13
38 23 65 30 84 111 235 159 295 36 45 269 275 320 315 28 22 52 42 55 45 3 3
21 16 40 30 19 13 40 28 45 33 26 22 175 115 175 109 0 -4 4 -2 8 4 4 6 39 27
77 48 59 32 101 59 85 55 -3 -1 -50 -9 -105 -19z"/>
</g>
</svg>
